<svg fill="#aaaaaa" version="1.1" id="Layer_1" xmlns="http://www.w3.org/2000/svg" xmlns:xlink="http://www.w3.org/1999/xlink" x="0px" y="0px"
	 width="102.667px" height="112px" viewBox="0 0 102.667 112" enable-background="new 0 0 102.667 112" xml:space="preserve">
<path d="M102.667,112H0c4.988-18.598,15.871-27.244,29.758-30.895c6.432,3.455,13.771,5.414,21.566,5.414
	c7.797,0,15.143-1.97,21.573-5.414C86.795,84.752,97.678,93.398,102.667,112z M14,37.333C14,16.716,30.715,0,51.333,0
	s37.334,16.716,37.334,37.333S71.95,74.666,51.333,74.666S14,57.951,14,37.333z M26.372,49.779
	c4.596,9.184,13.99,15.555,24.961,15.555c10.972,0,20.365-6.371,24.963-15.555H26.372z"/>
</svg>
