<svg fill="#bbbbbb" version="1.1" id="Artwork" xmlns="http://www.w3.org/2000/svg" xmlns:xlink="http://www.w3.org/1999/xlink" x="0px" y="0px"
	 width="512px" height="512px" viewBox="0 0 512 512" enable-background="new 0 0 512 512" xml:space="preserve">
<g>
	<path d="M465,194l-74-34c-4-2-5.506,0.934-6,2l-71.122,151.974c-0.498,1.066-0.689,2.877-0.428,4.023l15.379,67.139
		c0.264,1.146,1.334,1.645,2.379,1.108l61.287-31.431c1.049-0.537,2.311-1.848,2.807-2.914L466,200C466.496,198.934,468,196,465,194
		z M372.683,351.858c-1.025,0.574-2.729,1.473-3.775,2.01c0,0-16.982,8.709-23.275,11.936c-3.156,1.619-9.541-0.941-10.332-4.399
		c-1.607-7.011-5.947-25.959-5.947-25.959c-0.262-1.147-0.653-3.031-0.889-4.183C328,329,329,327,331.935,327.632
		c1.149,0.248,2.855,1.207,3.922,1.703l33.543,15.623c1.064,0.498,2.836,1.272,3.826,1.906C375,348,376,350,372.683,351.858z"/>
	<path d="M432,316c-3.022,6.59-6.774,14.531-10.982,23.85c-1.188,2.632-2.569,4.463-2.569,11.264c0,17.718,0,70.87,0,70.87
		c0,3.275-2.766,6.042-6.043,6.042H105.183c-3.273,0-6.041-2.767-6.041-6.042V82.888c0-3.33,2.709-6.041,6.041-6.041h307.223
		c3.334,0,6.043,2.711,6.043,6.041c0,0,0,40.587,0,53.477c0,3.636,1.552,5.636,3.35,6.403c2.518,1.074,7.614,3.073,10.163,4.07
		c1.494,0.584,3.729-0.837,3.729-5.223c0-14.682,0-58.726,0-58.726c0-12.838-10.443-23.283-23.285-23.283H105.183
		c-12.838,0-23.285,10.445-23.285,23.283v339.097c0,12.841,10.447,23.284,23.285,23.284h307.223
		c12.842,0,23.285-10.443,23.285-23.284c0,0,0-78.153,0-104.204C435.69,313,432.736,314.395,432,316z"/>
	<path d="M351.031,180.105v-8.739c0-2.339-1.913-4.252-4.252-4.252H157.082c-2.339,0-4.252,1.913-4.252,4.252v8.739
		c0,2.339,1.913,4.252,4.252,4.252h189.697C349.118,184.357,351.031,182.444,351.031,180.105z"/>
	<path d="M314.264,256.631v-8.739c0-2.338-1.913-4.252-4.252-4.252h-152.93c-2.339,0-4.252,1.914-4.252,4.252v8.739
		c0,2.338,1.913,4.252,4.252,4.252h152.93C312.351,260.883,314.264,258.97,314.264,256.631z"/>
	<path d="M173.427,367.151c-1.904,0-3.461,1.558-3.461,3.461v10.321c0,1.903,1.557,3.461,3.461,3.461h131.031
		c1.904,0,3.461-1.558,3.461-3.461v-10.321c0-1.903-1.557-3.461-3.461-3.461H173.427z"/>
</g>
</svg>
